<?xml version="1.0" encoding="iso-8859-1"?>
<!-- Generator: Adobe Illustrator 19.2.0, SVG Export Plug-In . SVG Version: 6.00 Build 0)  -->
<svg version="1.1"  xmlns="http://www.w3.org/2000/svg" xmlns:xlink="http://www.w3.org/1999/xlink" x="0px" y="0px"
	 viewBox="0 0 48 48" style="enable-background:new 0 0 48 48;" xml:space="preserve">
<path style="fill:#DBB561;" d="M20,26H9.022C9.011,26.323,9,26.643,9,27c0,4,0,7,0,7v7.005c0,0,0,1.995,2,1.995s4,0,4,0s0-2-2-2v-6
	c2.204-0.917,3.608-1.982,4.5-3c0.589-0.718,1.461-0.946,2.5-0.92V26z"/>
<path style="fill:#DBB561;" d="M28,31v10.005c0,0,0,1.995,2,1.995s4,0,4,0s0-2-2-2V28L28,31z"/>
<path style="fill:#FFDE94;" d="M25,31v10.005c0,0,0,1.995,2,1.995s4,0,4,0s0-2-2-2V31H25z"/>
<path style="fill:#FFDE94;" d="M5,34v7.005C5,41.005,5,43,7,43s4,0,4,0s0-2-2-2v-6L5,34z"/>
<path style="fill:#FFDE94;" d="M15,28c0,0,0.75,4.188-6,7l-4-1c0,0,0-3,0-7s0.643-5.787,2-7c1.9-1.699,3.875-2,10-2s3,0,3,0
	s4.167-0.146,6-4l9,4c0,0-1.563,6.063-2,8c-0.909,4.026-4,7-4,7s-0.031,1-2,1c-0.531-0.375-1.421-1.114-2.007-1.311
	C20.657,31.237,20.423,25.302,15,28z"/>
<path style="fill:#FFDE94;" d="M35,18c0,0,0.406-1,3.574-1C41.025,17,42,13.432,42,13.432L38,12c0,0-0.526-3-3-3s-5.561,0-5.561,0
	s-2.13,2.502-3.439,5S35,18,35,18z"/>
<path style="fill:#F39C12;" d="M42,13.43c0,0-0.2,0.75-0.67,1.57H35c-1.65,0-3,1.35-3,3v4c0,1.1-0.9,2-2,2c-2.75,0-5,2.25-5,5v3.69
	c-4.313,0-9.5-3.128-11.5-0.69c-0.892,1.018-2.296,2.082-4.5,3l-4-1c0,0,0-3,0-7s0.64-5.79,2-7c1.07-0.95,2.16-1.47,4-1.74
	c1.43-0.2,3.32-0.26,6-0.26h3c0,0,4.17-0.15,6-4c0.18-0.34,0.37-0.67,0.57-1c1.27-2.13,2.87-4,2.87-4S32.53,9,35,9s3,3,3,3L42,13.43
	z"/>
<path style="fill:#6D350F;" d="M40.051,14.135l1.096,1.096C41.737,14.346,42,13.432,42,13.432l-2.064-0.739
	C39.631,13.138,39.656,13.739,40.051,14.135z"/>
<path style="fill:#F39C12;" d="M35,5c0,0-3.833,1.792-5.561,4c0,0,3.458,1.376,4.568,1.006C34.006,8.583,35,8.208,35,5z"/>
<path style="fill:#3E2723;" d="M36.708,11.292c0.389,0.389,0.389,1.017,0,1.406c-0.389,0.389-1.698,0.291-1.698,0.291
	s-0.097-1.309,0.291-1.698C35.691,10.903,36.32,10.903,36.708,11.292z"/>
<path style="fill:#F39C12;" d="M8,21c0,0-1-1.438-1-4s1.844-5,5-5s6,2.906,6,6s-3,5.906-3,7c0,0-1-1.063-1-4s-0.188-4-2-4s-2,2-2,2
	L8,21z"/>
<path style="fill:#FFDE94;" d="M17.665,16.164c-1.79,0.483-2.081,1.883-3.928,1.883c0.004,0.013,0,0.031,0.002,0.046
	C13.952,18.73,14,19.662,14,21c0,2.938,1,4,1,4c0-1.094,3-3.906,3-7C18,17.372,17.878,16.754,17.665,16.164z"/>
</svg>
